<svg width="2304" height="2691" viewBox="0 0 2304 2691" fill="none" xmlns="http://www.w3.org/2000/svg">
<g clip-path="url(#clip0_1672_1516)">
<rect width="2304" height="2691" fill="#0D6FE0"/>
<path d="M1023.97 2179.08C1165.35 2179.08 1279.97 2064.46 1279.97 1923.08C1279.97 1781.69 1165.35 1667.08 1023.97 1667.08C882.584 1667.08 767.969 1781.69 767.969 1923.08C767.969 2064.46 882.584 2179.08 1023.97 2179.08Z" fill="#FF9500"/>
<path d="M1792 1667H1280V1923H1792V1667Z" fill="white"/>
<path d="M2304 1667H1792V2179H2304V1667Z" fill="#FF9500"/>
<path d="M2303.97 2691.08V2179.08V1667.08C2021.2 1667.08 1791.97 1896.31 1791.97 2179.08C1791.97 2461.85 2021.2 2691.08 2303.97 2691.08Z" fill="#FFAC36"/>
<path d="M1280 2179.08C1280 2111.18 1306.97 2046.07 1354.98 1998.06C1402.99 1950.05 1468.1 1923.08 1536 1923.08C1536 2027.59 1536 2179.08 1536 2179.08C1536 2179.08 1354.98 2179.08 1280 2179.08Z" fill="#FF9500"/>
<path d="M2048 1667C2048 1599.1 2074.97 1533.99 2122.98 1485.98C2170.99 1437.97 2236.1 1411 2304 1411C2304 1515.51 2304 1667 2304 1667C2304 1667 2122.98 1667 2048 1667Z" fill="white"/>
<path d="M1279.97 2691.08C1144.18 2691.08 1013.95 2637.14 917.93 2541.12C821.911 2445.1 767.969 2314.87 767.969 2179.08C976.995 2179.08 1279.97 2179.08 1279.97 2179.08C1279.97 2179.08 1279.97 2541.12 1279.97 2691.08Z" fill="#FF9500"/>
<path d="M1792 1923H1536V2179H1792V1923Z" fill="#FFAC36"/>
<path d="M767.969 2179.08H511.969V2435.08H767.969V2179.08Z" fill="#FFAC36"/>
<path d="M1536 512H1280V768H1536V512Z" fill="#FFAC36"/>
<path d="M768 1923H512V2179H768V1923Z" fill="white"/>
<path d="M1791.97 2179.08H1279.97V2691.08H1791.97V2179.08Z" fill="white"/>
<path d="M1663.97 2179.08C1734.66 2179.08 1791.97 2121.77 1791.97 2051.08C1791.97 1980.39 1734.66 1923.08 1663.97 1923.08C1593.28 1923.08 1535.97 1980.39 1535.97 2051.08C1535.97 2121.77 1593.28 2179.08 1663.97 2179.08Z" fill="#0D6FE0"/>
<path d="M639.969 2691.08C710.661 2691.08 767.969 2633.77 767.969 2563.08C767.969 2492.39 710.661 2435.08 639.969 2435.08C569.276 2435.08 511.969 2492.39 511.969 2563.08C511.969 2633.77 569.276 2691.08 639.969 2691.08Z" fill="#FF9500"/>
<path d="M1665 1923C1735.69 1923 1793 1865.69 1793 1795C1793 1724.31 1735.69 1667 1665 1667C1594.31 1667 1537 1724.31 1537 1795C1537 1865.69 1594.31 1923 1665 1923Z" fill="#FF9500"/>
<path d="M1920 1667C1990.69 1667 2048 1609.69 2048 1539C2048 1468.31 1990.69 1411 1920 1411C1849.31 1411 1792 1468.31 1792 1539C1792 1609.69 1849.31 1667 1920 1667Z" fill="#FFAC36"/>
<path d="M896.969 518.078C967.661 518.078 1024.97 460.771 1024.97 390.078C1024.97 319.386 967.661 262.078 896.969 262.078C826.276 262.078 768.969 319.386 768.969 390.078C768.969 460.771 826.276 518.078 896.969 518.078Z" fill="#FF9500"/>
<path d="M1535.97 2691.08C1677.35 2691.08 1791.97 2576.46 1791.97 2435.08C1791.97 2293.69 1677.35 2179.08 1535.97 2179.08C1394.58 2179.08 1279.97 2293.69 1279.97 2435.08C1279.97 2576.46 1394.58 2691.08 1535.97 2691.08Z" fill="#FFAC36"/>
<path d="M-0.0311238 1667.08C135.76 1667.08 265.989 1721.02 362.008 1817.04C458.026 1913.06 511.969 2043.29 511.969 2179.08C302.943 2179.08 -0.0311299 2179.08 -0.0311299 2179.08C-0.0311299 2179.08 -0.0310041 1817.04 -0.0311238 1667.08Z" fill="#FFAC36"/>
<path d="M512 0.000120143C512 135.791 458.057 266.02 362.039 362.039C266.02 458.057 135.791 512 7.15934e-06 512C-8.94918e-06 302.974 7.15934e-06 0.000120143 7.15934e-06 0.000120143C7.15934e-06 0.000120143 362.039 0.000241628 512 0.000120143Z" fill="#FF9500"/>
<path d="M511.969 2179.08H-0.03125V2691.08H511.969V2179.08Z" fill="#FF9500"/>
<path d="M2303.97 512.078H1791.97V768.078H2303.97V512.078Z" fill="#FFAC36"/>
<path d="M108.117 770V591.818H185.376C198.948 591.818 210.346 593.645 219.568 597.299C228.848 600.953 235.837 606.116 240.536 612.786C245.292 619.456 247.67 627.315 247.67 636.364C247.67 642.918 246.22 648.892 243.32 654.286C240.478 659.68 236.475 664.205 231.313 667.859C226.151 671.455 220.119 673.949 213.217 675.341V677.081C220.873 677.371 227.833 679.314 234.097 682.91C240.362 686.448 245.35 691.349 249.062 697.614C252.774 703.82 254.63 711.128 254.63 719.538C254.63 729.283 252.078 737.954 246.974 745.552C241.928 753.15 234.735 759.125 225.397 763.475C216.059 767.825 204.922 770 191.988 770H108.117ZM156.491 731.371H179.112C187.232 731.371 193.322 729.863 197.382 726.847C201.442 723.772 203.472 719.248 203.472 713.274C203.472 709.098 202.515 705.56 200.601 702.66C198.687 699.76 195.961 697.556 192.423 696.048C188.943 694.54 184.738 693.786 179.808 693.786H156.491V731.371ZM156.491 663.857H176.327C180.562 663.857 184.303 663.19 187.551 661.855C190.799 660.521 193.322 658.607 195.12 656.113C196.976 653.561 197.904 650.458 197.904 646.804C197.904 641.294 195.932 637.089 191.988 634.189C188.044 631.23 183.056 629.751 177.023 629.751H156.491V663.857ZM270.016 770V636.364H318.041V770H270.016ZM294.028 622.443C287.532 622.443 281.964 620.297 277.324 616.005C272.684 611.713 270.364 606.551 270.364 600.518C270.364 594.486 272.684 589.324 277.324 585.032C281.964 580.74 287.532 578.594 294.028 578.594C300.583 578.594 306.151 580.74 310.733 585.032C315.373 589.324 317.693 594.486 317.693 600.518C317.693 606.551 315.373 611.713 310.733 616.005C306.151 620.297 300.583 622.443 294.028 622.443ZM419.755 636.364V671.165H331.708V636.364H419.755ZM348.761 604.347H396.787V727.021C396.787 728.877 397.106 730.443 397.744 731.719C398.382 732.937 399.368 733.865 400.702 734.503C402.036 735.083 403.747 735.373 405.835 735.373C407.285 735.373 408.967 735.199 410.881 734.851C412.853 734.503 414.303 734.213 415.231 733.981L422.191 767.738C420.045 768.376 416.971 769.159 412.969 770.087C409.025 771.015 404.327 771.624 398.875 771.914C387.854 772.494 378.603 771.363 371.121 768.521C363.638 765.621 358.012 761.068 354.242 754.862C350.472 748.655 348.645 740.883 348.761 731.545V604.347ZM499.849 772.436C485.349 772.436 472.936 769.565 462.612 763.823C452.288 758.023 444.37 749.96 438.86 739.636C433.35 729.254 430.595 717.218 430.595 703.53C430.595 689.841 433.35 677.835 438.86 667.511C444.37 657.128 452.288 649.066 462.612 643.324C472.936 637.524 485.349 634.624 499.849 634.624C512.958 634.624 524.297 637.002 533.867 641.758C543.496 646.456 550.949 653.126 556.227 661.768C561.505 670.353 564.173 680.445 564.231 692.045H519.686C519.048 685.027 517.018 679.691 513.596 676.037C510.232 672.325 505.881 670.469 500.545 670.469C496.369 670.469 492.715 671.687 489.583 674.123C486.451 676.501 484.015 680.126 482.275 684.998C480.535 689.812 479.665 695.874 479.665 703.182C479.665 710.49 480.535 716.58 482.275 721.452C484.015 726.267 486.451 729.892 489.583 732.328C492.715 734.706 496.369 735.895 500.545 735.895C504.083 735.895 507.215 735.083 509.942 733.459C512.668 731.777 514.872 729.341 516.554 726.151C518.294 722.902 519.338 718.958 519.686 714.318H564.231C564.057 726.093 561.36 736.359 556.14 745.117C550.92 753.817 543.525 760.546 533.954 765.302C524.442 770.058 513.074 772.436 499.849 772.436ZM645.978 772.436C631.478 772.436 619.065 769.565 608.741 763.823C598.417 758.023 590.5 749.96 584.989 739.636C579.479 729.254 576.724 717.218 576.724 703.53C576.724 689.841 579.479 677.835 584.989 667.511C590.5 657.128 598.417 649.066 608.741 643.324C619.065 637.524 631.478 634.624 645.978 634.624C660.479 634.624 672.891 637.524 683.216 643.324C693.54 649.066 701.457 657.128 706.967 667.511C712.478 677.835 715.233 689.841 715.233 703.53C715.233 717.218 712.478 729.254 706.967 739.636C701.457 749.96 693.54 758.023 683.216 763.823C672.891 769.565 660.479 772.436 645.978 772.436ZM646.326 736.939C650.386 736.939 653.896 735.576 656.854 732.85C659.812 730.124 662.103 726.238 663.727 721.191C665.351 716.145 666.163 710.142 666.163 703.182C666.163 696.164 665.351 690.16 663.727 685.172C662.103 680.126 659.812 676.24 656.854 673.514C653.896 670.788 650.386 669.425 646.326 669.425C642.034 669.425 638.351 670.788 635.277 673.514C632.203 676.24 629.854 680.126 628.23 685.172C626.606 690.16 625.794 696.164 625.794 703.182C625.794 710.142 626.606 716.145 628.23 721.191C629.854 726.238 632.203 730.124 635.277 732.85C638.351 735.576 642.034 736.939 646.326 736.939ZM732.271 770V636.364H780.297V770H732.271ZM756.284 622.443C749.788 622.443 744.22 620.297 739.579 616.005C734.939 611.713 732.619 606.551 732.619 600.518C732.619 594.486 734.939 589.324 739.579 585.032C744.22 580.74 749.788 578.594 756.284 578.594C762.838 578.594 768.406 580.74 772.989 585.032C777.629 589.324 779.949 594.486 779.949 600.518C779.949 606.551 777.629 611.713 772.989 616.005C768.406 620.297 762.838 622.443 756.284 622.443ZM850.342 694.83V770H802.316V636.364H847.906V661.768H849.298C852.198 653.3 857.302 646.659 864.61 641.845C871.977 637.031 880.561 634.624 890.363 634.624C899.818 634.624 908.025 636.799 914.985 641.149C922.003 645.441 927.426 651.357 931.255 658.897C935.141 666.438 937.055 675.051 936.997 684.737V770H888.971V694.83C889.029 688.217 887.347 683.026 883.925 679.256C880.561 675.486 875.863 673.601 869.831 673.601C865.886 673.601 862.435 674.471 859.477 676.211C856.577 677.893 854.344 680.329 852.778 683.519C851.212 686.651 850.4 690.421 850.342 694.83ZM188.856 837.364V872.165H99.4169V837.364H188.856ZM116.469 971V833.536C116.469 822.515 118.442 813.38 122.386 806.13C126.33 798.879 131.898 793.456 139.09 789.86C146.282 786.264 154.751 784.466 164.495 784.466C170.585 784.466 176.501 784.93 182.244 785.858C188.044 786.786 192.336 787.598 195.12 788.294L188.16 822.747C186.42 822.225 184.39 821.819 182.07 821.529C179.75 821.181 177.719 821.007 175.979 821.007C171.455 821.007 168.41 821.964 166.844 823.878C165.278 825.792 164.495 828.315 164.495 831.447V971H116.469ZM265.252 973.436C250.752 973.436 238.339 970.565 228.015 964.823C217.691 959.023 209.773 950.96 204.263 940.636C198.753 930.254 195.998 918.218 195.998 904.53C195.998 890.841 198.753 878.835 204.263 868.511C209.773 858.128 217.691 850.066 228.015 844.324C238.339 838.524 250.752 835.624 265.252 835.624C279.753 835.624 292.165 838.524 302.489 844.324C312.814 850.066 320.731 858.128 326.241 868.511C331.751 878.835 334.506 890.841 334.506 904.53C334.506 918.218 331.751 930.254 326.241 940.636C320.731 950.96 312.814 959.023 302.489 964.823C292.165 970.565 279.753 973.436 265.252 973.436ZM265.6 937.939C269.66 937.939 273.169 936.576 276.128 933.85C279.086 931.124 281.377 927.238 283.001 922.191C284.625 917.145 285.437 911.142 285.437 904.182C285.437 897.164 284.625 891.16 283.001 886.172C281.377 881.126 279.086 877.24 276.128 874.514C273.169 871.788 269.66 870.425 265.6 870.425C261.308 870.425 257.625 871.788 254.551 874.514C251.477 877.24 249.128 881.126 247.504 886.172C245.88 891.16 245.067 897.164 245.067 904.182C245.067 911.142 245.88 917.145 247.504 922.191C249.128 927.238 251.477 931.124 254.551 933.85C257.625 936.576 261.308 937.939 265.6 937.939ZM351.545 971V837.364H398.179V862.768H399.571C402.007 853.372 405.864 846.499 411.142 842.149C416.478 837.799 422.713 835.624 429.848 835.624C431.936 835.624 433.995 835.798 436.025 836.146C438.113 836.436 440.114 836.871 442.028 837.451V878.429C439.65 877.617 436.721 877.008 433.241 876.602C429.761 876.196 426.774 875.993 424.279 875.993C419.581 875.993 415.347 877.066 411.577 879.212C407.865 881.3 404.936 884.258 402.79 888.086C400.644 891.856 399.571 896.294 399.571 901.398V971H351.545Z" fill="white"/>
<path d="M1579.47 1094V915.818H1627.85V1055.02H1699.89V1094H1579.47ZM1782.07 1096.44C1767.57 1096.44 1755.15 1093.56 1744.83 1087.82C1734.51 1082.02 1726.59 1073.96 1721.08 1063.64C1715.57 1053.25 1712.81 1041.22 1712.81 1027.53C1712.81 1013.84 1715.57 1001.83 1721.08 991.511C1726.59 981.128 1734.51 973.066 1744.83 967.324C1755.15 961.524 1767.57 958.624 1782.07 958.624C1796.57 958.624 1808.98 961.524 1819.3 967.324C1829.63 973.066 1837.55 981.128 1843.06 991.511C1848.57 1001.83 1851.32 1013.84 1851.32 1027.53C1851.32 1041.22 1848.57 1053.25 1843.06 1063.64C1837.55 1073.96 1829.63 1082.02 1819.3 1087.82C1808.98 1093.56 1796.57 1096.44 1782.07 1096.44ZM1782.42 1060.94C1786.48 1060.94 1789.98 1059.58 1792.94 1056.85C1795.9 1054.12 1798.19 1050.24 1799.82 1045.19C1801.44 1040.15 1802.25 1034.14 1802.25 1027.18C1802.25 1020.16 1801.44 1014.16 1799.82 1009.17C1798.19 1004.13 1795.9 1000.24 1792.94 997.514C1789.98 994.788 1786.48 993.425 1782.42 993.425C1778.12 993.425 1774.44 994.788 1771.37 997.514C1768.29 1000.24 1765.94 1004.13 1764.32 1009.17C1762.69 1014.16 1761.88 1020.16 1761.88 1027.18C1761.88 1034.14 1762.69 1040.15 1764.32 1045.19C1765.94 1050.24 1768.29 1054.12 1771.37 1056.85C1774.44 1059.58 1778.12 1060.94 1782.42 1060.94ZM1932.74 1096.44C1918.24 1096.44 1905.83 1093.56 1895.51 1087.82C1885.18 1082.02 1877.26 1073.96 1871.75 1063.64C1866.24 1053.25 1863.49 1041.22 1863.49 1027.53C1863.49 1013.84 1866.24 1001.83 1871.75 991.511C1877.26 981.128 1885.18 973.066 1895.51 967.324C1905.83 961.524 1918.24 958.624 1932.74 958.624C1945.85 958.624 1957.19 961.002 1966.76 965.758C1976.39 970.456 1983.84 977.126 1989.12 985.768C1994.4 994.353 1997.07 1004.45 1997.12 1016.05H1952.58C1951.94 1009.03 1949.91 1003.69 1946.49 1000.04C1943.12 996.325 1938.77 994.469 1933.44 994.469C1929.26 994.469 1925.61 995.687 1922.48 998.123C1919.34 1000.5 1916.91 1004.13 1915.17 1009C1913.43 1013.81 1912.56 1019.87 1912.56 1027.18C1912.56 1034.49 1913.43 1040.58 1915.17 1045.45C1916.91 1050.27 1919.34 1053.89 1922.48 1056.33C1925.61 1058.71 1929.26 1059.89 1933.44 1059.89C1936.98 1059.89 1940.11 1059.08 1942.83 1057.46C1945.56 1055.78 1947.76 1053.34 1949.45 1050.15C1951.19 1046.9 1952.23 1042.96 1952.58 1038.32H1997.12C1996.95 1050.09 1994.25 1060.36 1989.03 1069.12C1983.81 1077.82 1976.42 1084.55 1966.85 1089.3C1957.34 1094.06 1945.97 1096.44 1932.74 1096.44ZM2051.73 1096.09C2043.2 1096.09 2035.66 1094.7 2029.11 1091.91C2022.61 1089.07 2017.51 1084.78 2013.79 1079.04C2010.08 1073.29 2008.23 1065.99 2008.23 1057.11C2008.23 1049.8 2009.47 1043.57 2011.97 1038.41C2014.46 1033.19 2017.94 1028.92 2022.41 1025.62C2026.87 1022.31 2032.06 1019.79 2037.98 1018.05C2043.95 1016.31 2050.39 1015.18 2057.29 1014.65C2064.78 1014.07 2070.78 1013.38 2075.3 1012.57C2079.89 1011.7 2083.19 1010.51 2085.22 1009C2087.25 1007.43 2088.27 1005.37 2088.27 1002.82V1002.47C2088.27 998.993 2086.93 996.325 2084.27 994.469C2081.6 992.613 2078.18 991.685 2074 991.685C2069.42 991.685 2065.68 992.7 2062.78 994.73C2059.93 996.702 2058.22 999.747 2057.64 1003.87H2013.45C2014.03 995.745 2016.61 988.263 2021.19 981.418C2025.83 974.516 2032.59 969.006 2041.46 964.888C2050.33 960.712 2061.41 958.624 2074.7 958.624C2084.27 958.624 2092.85 959.755 2100.45 962.017C2108.05 964.221 2114.51 967.324 2119.85 971.326C2125.19 975.27 2129.25 979.91 2132.03 985.246C2134.87 990.525 2136.29 996.267 2136.29 1002.47V1094H2091.4V1075.21H2090.36C2087.69 1080.2 2084.44 1084.23 2080.61 1087.3C2076.84 1090.37 2072.52 1092.61 2067.65 1094C2062.83 1095.39 2057.53 1096.09 2051.73 1096.09ZM2067.39 1065.81C2071.04 1065.81 2074.46 1065.06 2077.65 1063.55C2080.9 1062.04 2083.54 1059.87 2085.57 1057.02C2087.6 1054.18 2088.62 1050.73 2088.62 1046.67V1035.53C2087.34 1036.06 2085.98 1036.55 2084.53 1037.01C2083.13 1037.48 2081.63 1037.91 2080 1038.32C2078.44 1038.72 2076.75 1039.1 2074.96 1039.45C2073.22 1039.8 2071.39 1040.12 2069.48 1040.41C2065.76 1040.99 2062.72 1041.94 2060.34 1043.28C2058.02 1044.55 2056.28 1046.15 2055.12 1048.06C2054.02 1049.92 2053.47 1052.01 2053.47 1054.33C2053.47 1058.04 2054.77 1060.88 2057.38 1062.85C2059.99 1064.83 2063.33 1065.81 2067.39 1065.81ZM2204.82 915.818V1094H2156.79V915.818H2204.82ZM1110.94 1295V1116.82H1188.2C1201.77 1116.82 1213.17 1118.65 1222.39 1122.3C1231.67 1125.95 1238.66 1131.12 1243.36 1137.79C1248.11 1144.46 1250.49 1152.32 1250.49 1161.36C1250.49 1167.92 1249.04 1173.89 1246.14 1179.29C1243.3 1184.68 1239.3 1189.2 1234.14 1192.86C1228.97 1196.45 1222.94 1198.95 1216.04 1200.34V1202.08C1223.7 1202.37 1230.66 1204.31 1236.92 1207.91C1243.18 1211.45 1248.17 1216.35 1251.88 1222.61C1255.6 1228.82 1257.45 1236.13 1257.45 1244.54C1257.45 1254.28 1254.9 1262.95 1249.8 1270.55C1244.75 1278.15 1237.56 1284.12 1228.22 1288.47C1218.88 1292.82 1207.74 1295 1194.81 1295H1110.94ZM1159.31 1256.37H1181.93C1190.05 1256.37 1196.14 1254.86 1200.2 1251.85C1204.26 1248.77 1206.29 1244.25 1206.29 1238.27C1206.29 1234.1 1205.34 1230.56 1203.42 1227.66C1201.51 1224.76 1198.78 1222.56 1195.25 1221.05C1191.77 1219.54 1187.56 1218.79 1182.63 1218.79H1159.31V1256.37ZM1159.31 1188.86H1179.15C1183.38 1188.86 1187.13 1188.19 1190.37 1186.86C1193.62 1185.52 1196.14 1183.61 1197.94 1181.11C1199.8 1178.56 1200.73 1175.46 1200.73 1171.8C1200.73 1166.29 1198.75 1162.09 1194.81 1159.19C1190.87 1156.23 1185.88 1154.75 1179.85 1154.75H1159.31V1188.86ZM1359.49 1236.53V1161.36H1407.52V1295H1361.93V1269.6H1360.54C1357.64 1278.12 1352.56 1284.79 1345.31 1289.61C1338.06 1294.36 1329.45 1296.74 1319.47 1296.74C1310.13 1296.74 1301.95 1294.59 1294.94 1290.3C1287.98 1286.01 1282.55 1280.09 1278.67 1272.55C1274.84 1265.01 1272.9 1256.37 1272.84 1246.63V1161.36H1320.86V1236.53C1320.92 1243.15 1322.6 1248.34 1325.91 1252.11C1329.27 1255.88 1333.97 1257.76 1340 1257.76C1344.01 1257.76 1347.46 1256.92 1350.36 1255.24C1353.32 1253.5 1355.58 1251.06 1357.14 1247.93C1358.77 1244.74 1359.55 1240.94 1359.49 1236.53ZM1551.65 1204.87H1507.45C1507.22 1202.14 1506.26 1199.79 1504.58 1197.82C1502.9 1195.85 1500.72 1194.34 1498.05 1193.29C1495.44 1192.19 1492.54 1191.64 1489.35 1191.64C1485.23 1191.64 1481.7 1192.39 1478.74 1193.9C1475.78 1195.41 1474.33 1197.56 1474.39 1200.34C1474.33 1202.31 1475.17 1204.14 1476.91 1205.82C1478.71 1207.5 1482.16 1208.81 1487.26 1209.74L1514.41 1214.61C1528.1 1217.1 1538.28 1221.31 1544.95 1227.22C1551.68 1233.08 1555.07 1240.94 1555.13 1250.8C1555.07 1260.31 1552.23 1268.58 1546.6 1275.6C1541.03 1282.56 1533.4 1287.95 1523.72 1291.78C1514.09 1295.55 1503.1 1297.44 1490.74 1297.44C1470.33 1297.44 1454.35 1293.26 1442.81 1284.91C1431.32 1276.56 1424.91 1265.54 1423.58 1251.85H1471.26C1471.89 1256.08 1473.98 1259.36 1477.52 1261.68C1481.12 1263.94 1485.64 1265.07 1491.09 1265.07C1495.5 1265.07 1499.13 1264.32 1501.97 1262.81C1504.87 1261.3 1506.35 1259.15 1506.4 1256.37C1506.35 1253.82 1505.07 1251.79 1502.58 1250.28C1500.14 1248.77 1496.31 1247.55 1491.09 1246.63L1467.43 1242.45C1453.8 1240.07 1443.59 1235.55 1436.8 1228.88C1430.02 1222.21 1426.65 1213.62 1426.71 1203.12C1426.65 1193.84 1429.09 1185.99 1434.02 1179.55C1439.01 1173.05 1446.11 1168.12 1455.33 1164.76C1464.61 1161.33 1475.61 1159.62 1488.31 1159.62C1507.62 1159.62 1522.85 1163.63 1533.98 1171.63C1545.18 1179.63 1551.07 1190.71 1551.65 1204.87ZM1571.08 1295V1161.36H1619.1V1295H1571.08ZM1595.09 1147.44C1588.59 1147.44 1583.03 1145.3 1578.39 1141C1573.75 1136.71 1571.43 1131.55 1571.43 1125.52C1571.43 1119.49 1573.75 1114.32 1578.39 1110.03C1583.03 1105.74 1588.59 1103.59 1595.09 1103.59C1601.64 1103.59 1607.21 1105.74 1611.79 1110.03C1616.44 1114.32 1618.76 1119.49 1618.76 1125.52C1618.76 1131.55 1616.44 1136.71 1611.79 1141C1607.21 1145.3 1601.64 1147.44 1595.09 1147.44ZM1689.15 1219.83V1295H1641.12V1161.36H1686.71V1186.77H1688.1C1691 1178.3 1696.11 1171.66 1703.42 1166.84C1710.78 1162.03 1719.37 1159.62 1729.17 1159.62C1738.62 1159.62 1746.83 1161.8 1753.79 1166.15C1760.81 1170.44 1766.23 1176.36 1770.06 1183.9C1773.95 1191.44 1775.86 1200.05 1775.8 1209.74V1295H1727.78V1219.83C1727.84 1213.22 1726.15 1208.03 1722.73 1204.26C1719.37 1200.49 1714.67 1198.6 1708.64 1198.6C1704.69 1198.6 1701.24 1199.47 1698.28 1201.21C1695.38 1202.89 1693.15 1205.33 1691.58 1208.52C1690.02 1211.65 1689.21 1215.42 1689.15 1219.83ZM1861.1 1297.44C1846.83 1297.44 1834.53 1294.71 1824.21 1289.26C1813.94 1283.75 1806.02 1275.86 1800.45 1265.59C1794.94 1255.27 1792.19 1242.91 1792.19 1228.53C1792.19 1214.73 1794.97 1202.66 1800.54 1192.34C1806.11 1182.01 1813.97 1173.98 1824.12 1168.24C1834.27 1162.49 1846.25 1159.62 1860.05 1159.62C1870.14 1159.62 1879.28 1161.19 1887.46 1164.32C1895.64 1167.45 1902.62 1172.01 1908.43 1177.98C1914.23 1183.9 1918.69 1191.09 1921.82 1199.56C1924.96 1208.03 1926.52 1217.57 1926.52 1228.18V1239.32H1807.15V1212.87H1882.32C1882.27 1209.04 1881.28 1205.68 1879.37 1202.78C1877.51 1199.82 1874.99 1197.53 1871.8 1195.9C1868.66 1194.22 1865.1 1193.38 1861.1 1193.38C1857.21 1193.38 1853.64 1194.22 1850.39 1195.9C1847.15 1197.53 1844.54 1199.79 1842.56 1202.69C1840.65 1205.59 1839.63 1208.98 1839.52 1212.87V1241.41C1839.52 1245.7 1840.42 1249.53 1842.22 1252.89C1844.01 1256.25 1846.59 1258.89 1849.96 1260.81C1853.32 1262.72 1857.38 1263.68 1862.14 1263.68C1865.45 1263.68 1868.46 1263.21 1871.19 1262.29C1873.97 1261.36 1876.35 1260.02 1878.32 1258.28C1880.29 1256.49 1881.74 1254.34 1882.67 1251.85H1926.52C1925.01 1261.13 1921.45 1269.19 1915.82 1276.03C1910.19 1282.82 1902.74 1288.1 1893.46 1291.87C1884.24 1295.58 1873.45 1297.44 1861.1 1297.44ZM2065.82 1204.87H2021.62C2021.39 1202.14 2020.43 1199.79 2018.75 1197.82C2017.07 1195.85 2014.9 1194.34 2012.23 1193.29C2009.62 1192.19 2006.72 1191.64 2003.53 1191.64C1999.41 1191.64 1995.87 1192.39 1992.91 1193.9C1989.95 1195.41 1988.5 1197.56 1988.56 1200.34C1988.5 1202.31 1989.35 1204.14 1991.09 1205.82C1992.88 1207.5 1996.33 1208.81 2001.44 1209.74L2028.58 1214.61C2042.27 1217.1 2052.45 1221.31 2059.12 1227.22C2065.85 1233.08 2069.24 1240.94 2069.3 1250.8C2069.24 1260.31 2066.4 1268.58 2060.77 1275.6C2055.21 1282.56 2047.58 1287.95 2037.89 1291.78C2028.26 1295.55 2017.27 1297.44 2004.92 1297.44C1984.5 1297.44 1968.52 1293.26 1956.98 1284.91C1945.5 1276.56 1939.09 1265.54 1937.75 1251.85H1985.43C1986.07 1256.08 1988.16 1259.36 1991.69 1261.68C1995.29 1263.94 1999.81 1265.07 2005.27 1265.07C2009.68 1265.07 2013.3 1264.32 2016.14 1262.81C2019.04 1261.3 2020.52 1259.15 2020.58 1256.37C2020.52 1253.82 2019.25 1251.79 2016.75 1250.28C2014.32 1248.77 2010.49 1247.55 2005.27 1246.63L1981.6 1242.45C1967.97 1240.07 1957.76 1235.55 1950.98 1228.88C1944.19 1222.21 1940.83 1213.62 1940.88 1203.12C1940.83 1193.84 1943.26 1185.99 1948.19 1179.55C1953.18 1173.05 1960.29 1168.12 1969.51 1164.76C1978.79 1161.33 1989.78 1159.62 2002.48 1159.62C2021.8 1159.62 2037.02 1163.63 2048.16 1171.63C2059.35 1179.63 2065.24 1190.71 2065.82 1204.87ZM2207.4 1204.87H2163.21C2162.97 1202.14 2162.02 1199.79 2160.34 1197.82C2158.65 1195.85 2156.48 1194.34 2153.81 1193.29C2151.2 1192.19 2148.3 1191.64 2145.11 1191.64C2140.99 1191.64 2137.45 1192.39 2134.5 1193.9C2131.54 1195.41 2130.09 1197.56 2130.15 1200.34C2130.09 1202.31 2130.93 1204.14 2132.67 1205.82C2134.47 1207.5 2137.92 1208.81 2143.02 1209.74L2170.17 1214.61C2183.86 1217.1 2194.03 1221.31 2200.7 1227.22C2207.43 1233.08 2210.83 1240.94 2210.88 1250.8C2210.83 1260.31 2207.98 1268.58 2202.36 1275.6C2196.79 1282.56 2189.16 1287.95 2179.48 1291.78C2169.85 1295.55 2158.86 1297.44 2146.5 1297.44C2126.09 1297.44 2110.11 1293.26 2098.56 1284.91C2087.08 1276.56 2080.67 1265.54 2079.34 1251.85H2127.01C2127.65 1256.08 2129.74 1259.36 2133.28 1261.68C2136.87 1263.94 2141.4 1265.07 2146.85 1265.07C2151.26 1265.07 2154.88 1264.32 2157.73 1262.81C2160.63 1261.3 2162.1 1259.15 2162.16 1256.37C2162.1 1253.82 2160.83 1251.79 2158.33 1250.28C2155.9 1248.77 2152.07 1247.55 2146.85 1246.63L2123.19 1242.45C2109.55 1240.07 2099.35 1235.55 2092.56 1228.88C2085.77 1222.21 2082.41 1213.62 2082.47 1203.12C2082.41 1193.84 2084.85 1185.99 2089.78 1179.55C2094.76 1173.05 2101.87 1168.12 2111.09 1164.76C2120.37 1161.33 2131.36 1159.62 2144.07 1159.62C2163.38 1159.62 2178.61 1163.63 2189.74 1171.63C2200.94 1179.63 2206.82 1190.71 2207.4 1204.87Z" fill="white"/>
<path d="M99.7344 1337.76V1328H145.727V1337.76H128.582V1384H116.879V1337.76H99.7344ZM165.5 1359.72V1384H153.852V1328H165.172V1349.41H165.665C166.612 1346.93 168.144 1344.99 170.258 1343.59C172.373 1342.16 175.025 1341.45 178.215 1341.45C181.132 1341.45 183.675 1342.09 185.844 1343.37C188.032 1344.62 189.727 1346.44 190.93 1348.81C192.152 1351.16 192.753 1353.98 192.735 1357.26V1384H181.086V1359.34C181.105 1356.75 180.448 1354.73 179.118 1353.29C177.805 1351.85 175.964 1351.13 173.594 1351.13C172.008 1351.13 170.605 1351.47 169.383 1352.14C168.18 1352.82 167.232 1353.8 166.54 1355.1C165.865 1356.37 165.519 1357.91 165.5 1359.72ZM221.812 1384.82C217.492 1384.82 213.773 1383.95 210.656 1382.2C207.557 1380.43 205.169 1377.93 203.492 1374.7C201.815 1371.46 200.977 1367.62 200.977 1363.19C200.977 1358.87 201.815 1355.08 203.492 1351.82C205.169 1348.55 207.53 1346.01 210.574 1344.19C213.637 1342.36 217.228 1341.45 221.348 1341.45C224.118 1341.45 226.698 1341.9 229.086 1342.79C231.492 1343.67 233.589 1344.99 235.375 1346.76C237.18 1348.53 238.583 1350.75 239.586 1353.43C240.589 1356.09 241.09 1359.21 241.09 1362.78V1365.98H205.625V1358.76H230.125C230.125 1357.08 229.76 1355.6 229.031 1354.3C228.302 1353.01 227.29 1352 225.996 1351.27C224.72 1350.52 223.234 1350.15 221.539 1350.15C219.771 1350.15 218.203 1350.56 216.836 1351.38C215.487 1352.18 214.43 1353.27 213.664 1354.63C212.898 1355.98 212.506 1357.49 212.488 1359.14V1366.01C212.488 1368.09 212.871 1369.88 213.637 1371.39C214.421 1372.91 215.523 1374.07 216.945 1374.89C218.367 1375.71 220.053 1376.12 222.004 1376.12C223.298 1376.12 224.483 1375.94 225.559 1375.58C226.634 1375.21 227.555 1374.67 228.32 1373.94C229.086 1373.21 229.669 1372.32 230.07 1371.26L240.844 1371.97C240.297 1374.56 239.176 1376.82 237.48 1378.75C235.803 1380.66 233.634 1382.16 230.973 1383.23C228.329 1384.29 225.276 1384.82 221.812 1384.82ZM268.271 1384V1328H279.92V1349.05H280.275C280.786 1347.92 281.524 1346.78 282.49 1345.61C283.475 1344.42 284.751 1343.44 286.318 1342.66C287.904 1341.85 289.873 1341.45 292.225 1341.45C295.287 1341.45 298.113 1342.26 300.701 1343.86C303.29 1345.45 305.359 1347.84 306.908 1351.05C308.458 1354.24 309.232 1358.24 309.232 1363.05C309.232 1367.74 308.476 1371.7 306.963 1374.92C305.468 1378.13 303.426 1380.56 300.838 1382.22C298.268 1383.86 295.387 1384.68 292.197 1384.68C289.937 1384.68 288.014 1384.31 286.428 1383.56C284.86 1382.82 283.575 1381.88 282.572 1380.75C281.57 1379.6 280.804 1378.44 280.275 1377.27H279.756V1384H268.271ZM279.674 1363C279.674 1365.5 280.02 1367.68 280.713 1369.54C281.406 1371.39 282.408 1372.84 283.721 1373.88C285.033 1374.9 286.628 1375.41 288.506 1375.41C290.402 1375.41 292.006 1374.89 293.318 1373.86C294.631 1372.8 295.624 1371.34 296.299 1369.48C296.991 1367.6 297.338 1365.44 297.338 1363C297.338 1360.58 297.001 1358.44 296.326 1356.6C295.652 1354.76 294.658 1353.32 293.346 1352.28C292.033 1351.24 290.42 1350.72 288.506 1350.72C286.61 1350.72 285.006 1351.22 283.693 1352.23C282.399 1353.23 281.406 1354.65 280.713 1356.49C280.02 1358.33 279.674 1360.5 279.674 1363ZM336.751 1384.82C332.504 1384.82 328.831 1383.92 325.732 1382.11C322.651 1380.29 320.272 1377.76 318.595 1374.51C316.918 1371.25 316.079 1367.47 316.079 1363.16C316.079 1358.83 316.918 1355.03 318.595 1351.79C320.272 1348.53 322.651 1345.99 325.732 1344.19C328.831 1342.36 332.504 1341.45 336.751 1341.45C340.999 1341.45 344.663 1342.36 347.744 1344.19C350.843 1345.99 353.231 1348.53 354.908 1351.79C356.585 1355.03 357.423 1358.83 357.423 1363.16C357.423 1367.47 356.585 1371.25 354.908 1374.51C353.231 1377.76 350.843 1380.29 347.744 1382.11C344.663 1383.92 340.999 1384.82 336.751 1384.82ZM336.806 1375.8C338.738 1375.8 340.352 1375.25 341.646 1374.16C342.94 1373.04 343.915 1371.53 344.572 1369.62C345.246 1367.7 345.583 1365.52 345.583 1363.08C345.583 1360.64 345.246 1358.46 344.572 1356.55C343.915 1354.63 342.94 1353.12 341.646 1352.01C340.352 1350.9 338.738 1350.34 336.806 1350.34C334.856 1350.34 333.215 1350.9 331.884 1352.01C330.572 1353.12 329.578 1354.63 328.904 1356.55C328.247 1358.46 327.919 1360.64 327.919 1363.08C327.919 1365.52 328.247 1367.7 328.904 1369.62C329.578 1371.53 330.572 1373.04 331.884 1374.16C333.215 1375.25 334.856 1375.8 336.806 1375.8ZM388.107 1342V1350.75H362.814V1342H388.107ZM368.557 1331.94H380.205V1371.09C380.205 1372.17 380.369 1373.01 380.697 1373.61C381.025 1374.19 381.481 1374.6 382.064 1374.84C382.666 1375.08 383.359 1375.2 384.142 1375.2C384.689 1375.2 385.236 1375.15 385.783 1375.06C386.33 1374.95 386.749 1374.87 387.041 1374.81L388.873 1383.48C388.29 1383.66 387.469 1383.87 386.412 1384.11C385.355 1384.36 384.07 1384.52 382.557 1384.57C379.749 1384.68 377.288 1384.31 375.174 1383.45C373.077 1382.6 371.446 1381.27 370.279 1379.46C369.113 1377.66 368.538 1375.38 368.557 1372.62V1331.94ZM418.805 1342V1350.75H393.512V1342H418.805ZM399.254 1331.94H410.903V1371.09C410.903 1372.17 411.067 1373.01 411.395 1373.61C411.723 1374.19 412.179 1374.6 412.762 1374.84C413.364 1375.08 414.056 1375.2 414.84 1375.2C415.387 1375.2 415.934 1375.15 416.481 1375.06C417.028 1374.95 417.447 1374.87 417.739 1374.81L419.571 1383.48C418.987 1383.66 418.167 1383.87 417.11 1384.11C416.052 1384.36 414.767 1384.52 413.254 1384.57C410.447 1384.68 407.986 1384.31 405.871 1383.45C403.775 1382.6 402.144 1381.27 400.977 1379.46C399.81 1377.66 399.236 1375.38 399.254 1372.62V1331.94ZM445.688 1384.82C441.441 1384.82 437.768 1383.92 434.669 1382.11C431.588 1380.29 429.209 1377.76 427.532 1374.51C425.855 1371.25 425.016 1367.47 425.016 1363.16C425.016 1358.83 425.855 1355.03 427.532 1351.79C429.209 1348.53 431.588 1345.99 434.669 1344.19C437.768 1342.36 441.441 1341.45 445.688 1341.45C449.936 1341.45 453.6 1342.36 456.681 1344.19C459.779 1345.99 462.167 1348.53 463.845 1351.79C465.522 1355.03 466.36 1358.83 466.36 1363.16C466.36 1367.47 465.522 1371.25 463.845 1374.51C462.167 1377.76 459.779 1380.29 456.681 1382.11C453.6 1383.92 449.936 1384.82 445.688 1384.82ZM445.743 1375.8C447.675 1375.8 449.289 1375.25 450.583 1374.16C451.877 1373.04 452.852 1371.53 453.509 1369.62C454.183 1367.7 454.52 1365.52 454.52 1363.08C454.52 1360.64 454.183 1358.46 453.509 1356.55C452.852 1354.63 451.877 1353.12 450.583 1352.01C449.289 1350.9 447.675 1350.34 445.743 1350.34C443.792 1350.34 442.152 1350.9 440.821 1352.01C439.509 1353.12 438.515 1354.63 437.841 1356.55C437.184 1358.46 436.856 1360.64 436.856 1363.08C436.856 1365.52 437.184 1367.7 437.841 1369.62C438.515 1371.53 439.509 1373.04 440.821 1374.16C442.152 1375.25 443.792 1375.8 445.743 1375.8ZM474.704 1384V1342H485.806V1349.41H486.298C487.173 1346.95 488.631 1345.01 490.673 1343.59C492.715 1342.16 495.158 1341.45 498.001 1341.45C500.881 1341.45 503.333 1342.17 505.357 1343.61C507.38 1345.04 508.729 1346.97 509.404 1349.41H509.841C510.698 1347 512.247 1345.08 514.49 1343.64C516.75 1342.18 519.421 1341.45 522.501 1341.45C526.421 1341.45 529.602 1342.7 532.044 1345.2C534.505 1347.68 535.736 1351.2 535.736 1355.75V1384H524.115V1358.05C524.115 1355.72 523.495 1353.97 522.255 1352.8C521.016 1351.63 519.466 1351.05 517.607 1351.05C515.492 1351.05 513.842 1351.73 512.658 1353.07C511.473 1354.4 510.88 1356.16 510.88 1358.35V1384H499.587V1357.8C499.587 1355.74 498.995 1354.1 497.81 1352.88C496.643 1351.66 495.103 1351.05 493.189 1351.05C491.895 1351.05 490.728 1351.38 489.689 1352.04C488.668 1352.67 487.857 1353.58 487.255 1354.74C486.654 1355.89 486.353 1357.24 486.353 1358.79V1384H474.704ZM571.875 1356.38V1365.62H546.336V1356.38H571.875ZM609.504 1366.12V1342H621.153V1384H609.969V1376.37H609.532C608.584 1378.83 607.007 1380.81 604.801 1382.3C602.614 1383.8 599.943 1384.55 596.789 1384.55C593.982 1384.55 591.512 1383.91 589.379 1382.63C587.246 1381.36 585.578 1379.54 584.375 1377.19C583.19 1374.84 582.589 1372.02 582.571 1368.74V1342H594.219V1366.66C594.237 1369.14 594.903 1371.1 596.215 1372.54C597.528 1373.98 599.287 1374.7 601.492 1374.7C602.896 1374.7 604.209 1374.38 605.43 1373.75C606.651 1373.09 607.636 1372.12 608.383 1370.85C609.149 1369.57 609.522 1367.99 609.504 1366.12ZM631.24 1399.75V1342H642.724V1349.05H643.244C643.754 1347.92 644.493 1346.78 645.459 1345.61C646.443 1344.42 647.719 1343.44 649.287 1342.66C650.873 1341.85 652.842 1341.45 655.193 1341.45C658.256 1341.45 661.081 1342.26 663.67 1343.86C666.258 1345.45 668.327 1347.84 669.877 1351.05C671.426 1354.24 672.201 1358.24 672.201 1363.05C672.201 1367.74 671.444 1371.7 669.931 1374.92C668.437 1378.13 666.395 1380.56 663.806 1382.22C661.236 1383.86 658.356 1384.68 655.166 1384.68C652.905 1384.68 650.982 1384.31 649.396 1383.56C647.829 1382.82 646.543 1381.88 645.541 1380.75C644.538 1379.6 643.773 1378.44 643.244 1377.27H642.888V1399.75H631.24ZM642.642 1363C642.642 1365.5 642.989 1367.68 643.681 1369.54C644.374 1371.39 645.377 1372.84 646.689 1373.88C648.002 1374.9 649.597 1375.41 651.474 1375.41C653.37 1375.41 654.974 1374.89 656.287 1373.86C657.599 1372.8 658.593 1371.34 659.267 1369.48C659.96 1367.6 660.306 1365.44 660.306 1363C660.306 1360.58 659.969 1358.44 659.295 1356.6C658.62 1354.76 657.627 1353.32 656.314 1352.28C655.002 1351.24 653.388 1350.72 651.474 1350.72C649.579 1350.72 647.974 1351.22 646.662 1352.23C645.368 1353.23 644.374 1354.65 643.681 1356.49C642.989 1358.33 642.642 1360.5 642.642 1363ZM113.625 1476.79C110.945 1476.79 108.557 1476.33 106.461 1475.4C104.365 1474.45 102.706 1473.06 101.484 1471.21C100.281 1469.36 99.6797 1467.04 99.6797 1464.27C99.6797 1461.94 100.108 1459.98 100.965 1458.39C101.822 1456.8 102.988 1455.53 104.465 1454.56C105.941 1453.6 107.618 1452.87 109.496 1452.37C111.392 1451.88 113.379 1451.54 115.457 1451.34C117.9 1451.08 119.868 1450.84 121.363 1450.62C122.858 1450.39 123.943 1450.04 124.617 1449.59C125.292 1449.13 125.629 1448.46 125.629 1447.56V1447.4C125.629 1445.67 125.082 1444.33 123.988 1443.38C122.913 1442.43 121.382 1441.96 119.395 1441.96C117.298 1441.96 115.63 1442.42 114.391 1443.35C113.151 1444.26 112.331 1445.41 111.93 1446.8L101.156 1445.92C101.703 1443.37 102.779 1441.16 104.383 1439.3C105.987 1437.43 108.056 1435.99 110.59 1434.98C113.142 1433.96 116.095 1433.45 119.449 1433.45C121.783 1433.45 124.016 1433.73 126.148 1434.27C128.299 1434.82 130.204 1435.67 131.863 1436.82C133.54 1437.96 134.862 1439.44 135.828 1441.25C136.794 1443.03 137.277 1445.17 137.277 1447.67V1476H126.23V1470.18H125.902C125.228 1471.49 124.326 1472.65 123.195 1473.65C122.065 1474.63 120.707 1475.41 119.121 1475.97C117.535 1476.52 115.703 1476.79 113.625 1476.79ZM116.961 1468.75C118.674 1468.75 120.188 1468.42 121.5 1467.74C122.812 1467.05 123.842 1466.12 124.59 1464.95C125.337 1463.79 125.711 1462.46 125.711 1460.99V1456.53C125.346 1456.77 124.845 1456.99 124.207 1457.19C123.587 1457.37 122.885 1457.54 122.102 1457.71C121.318 1457.85 120.534 1457.99 119.75 1458.12C118.966 1458.23 118.255 1458.33 117.617 1458.42C116.25 1458.62 115.056 1458.94 114.035 1459.37C113.014 1459.81 112.221 1460.4 111.656 1461.15C111.091 1461.88 110.809 1462.79 110.809 1463.89C110.809 1465.47 111.383 1466.68 112.531 1467.52C113.698 1468.34 115.174 1468.75 116.961 1468.75ZM147.084 1491.75V1434H158.569V1441.05H159.088C159.599 1439.92 160.337 1438.78 161.303 1437.61C162.288 1436.42 163.564 1435.44 165.131 1434.66C166.717 1433.85 168.686 1433.45 171.038 1433.45C174.1 1433.45 176.926 1434.26 179.514 1435.86C182.103 1437.45 184.172 1439.84 185.721 1443.05C187.271 1446.24 188.045 1450.24 188.045 1455.05C188.045 1459.74 187.289 1463.7 185.776 1466.92C184.281 1470.13 182.239 1472.56 179.651 1474.22C177.081 1475.86 174.2 1476.68 171.01 1476.68C168.75 1476.68 166.827 1476.31 165.241 1475.56C163.673 1474.82 162.388 1473.88 161.385 1472.75C160.383 1471.6 159.617 1470.44 159.088 1469.27H158.733V1491.75H147.084ZM158.487 1455C158.487 1457.5 158.833 1459.68 159.526 1461.54C160.219 1463.39 161.221 1464.84 162.534 1465.88C163.846 1466.9 165.441 1467.41 167.319 1467.41C169.215 1467.41 170.819 1466.89 172.131 1465.86C173.444 1464.8 174.437 1463.34 175.112 1461.48C175.805 1459.6 176.151 1457.44 176.151 1455C176.151 1452.58 175.814 1450.44 175.139 1448.6C174.465 1446.76 173.471 1445.32 172.159 1444.28C170.846 1443.24 169.233 1442.72 167.319 1442.72C165.423 1442.72 163.819 1443.22 162.506 1444.23C161.212 1445.23 160.219 1446.65 159.526 1448.49C158.833 1450.33 158.487 1452.5 158.487 1455ZM196.581 1491.75V1434H208.065V1441.05H208.585C209.095 1439.92 209.834 1438.78 210.8 1437.61C211.784 1436.42 213.06 1435.44 214.628 1434.66C216.214 1433.85 218.183 1433.45 220.534 1433.45C223.597 1433.45 226.422 1434.26 229.011 1435.86C231.599 1437.45 233.668 1439.84 235.218 1443.05C236.767 1446.24 237.542 1450.24 237.542 1455.05C237.542 1459.74 236.785 1463.7 235.272 1466.92C233.778 1470.13 231.736 1472.56 229.147 1474.22C226.577 1475.86 223.697 1476.68 220.507 1476.68C218.246 1476.68 216.323 1476.31 214.737 1475.56C213.17 1474.82 211.884 1473.88 210.882 1472.75C209.879 1471.6 209.114 1470.44 208.585 1469.27H208.229V1491.75H196.581ZM207.983 1455C207.983 1457.5 208.33 1459.68 209.022 1461.54C209.715 1463.39 210.718 1464.84 212.03 1465.88C213.343 1466.9 214.938 1467.41 216.815 1467.41C218.711 1467.41 220.315 1466.89 221.628 1465.86C222.94 1464.8 223.934 1463.34 224.608 1461.48C225.301 1459.6 225.647 1457.44 225.647 1455C225.647 1452.58 225.31 1450.44 224.636 1448.6C223.961 1446.76 222.968 1445.32 221.655 1444.28C220.343 1443.24 218.729 1442.72 216.815 1442.72C214.92 1442.72 213.315 1443.22 212.003 1444.23C210.709 1445.23 209.715 1446.65 209.022 1448.49C208.33 1450.33 207.983 1452.5 207.983 1455ZM246.078 1476V1434H257.371V1441.33H257.808C258.574 1438.72 259.859 1436.75 261.664 1435.42C263.468 1434.07 265.546 1433.4 267.898 1433.4C268.481 1433.4 269.11 1433.43 269.785 1433.51C270.459 1433.58 271.052 1433.68 271.562 1433.81V1444.14C271.015 1443.98 270.259 1443.83 269.292 1443.71C268.326 1443.58 267.442 1443.52 266.64 1443.52C264.927 1443.52 263.395 1443.89 262.046 1444.64C260.716 1445.37 259.658 1446.39 258.874 1447.7C258.109 1449.01 257.726 1450.52 257.726 1452.24V1476H246.078ZM295.376 1476.82C291.129 1476.82 287.455 1475.92 284.356 1474.11C281.276 1472.29 278.897 1469.76 277.22 1466.51C275.543 1463.25 274.704 1459.47 274.704 1455.16C274.704 1450.83 275.543 1447.03 277.22 1443.79C278.897 1440.53 281.276 1437.99 284.356 1436.19C287.455 1434.36 291.129 1433.45 295.376 1433.45C299.623 1433.45 303.287 1434.36 306.368 1436.19C309.467 1437.99 311.855 1440.53 313.532 1443.79C315.209 1447.03 316.048 1450.83 316.048 1455.16C316.048 1459.47 315.209 1463.25 313.532 1466.51C311.855 1469.76 309.467 1472.29 306.368 1474.11C303.287 1475.92 299.623 1476.82 295.376 1476.82ZM295.431 1467.8C297.363 1467.8 298.976 1467.25 300.27 1466.16C301.565 1465.04 302.54 1463.53 303.196 1461.62C303.871 1459.7 304.208 1457.52 304.208 1455.08C304.208 1452.64 303.871 1450.46 303.196 1448.55C302.54 1446.63 301.565 1445.12 300.27 1444.01C298.976 1442.9 297.363 1442.34 295.431 1442.34C293.48 1442.34 291.839 1442.9 290.509 1444.01C289.196 1445.12 288.203 1446.63 287.528 1448.55C286.872 1450.46 286.544 1452.64 286.544 1455.08C286.544 1457.52 286.872 1459.7 287.528 1461.62C288.203 1463.53 289.196 1465.04 290.509 1466.16C291.839 1467.25 293.48 1467.8 295.431 1467.8ZM336.369 1476.79C333.689 1476.79 331.301 1476.33 329.204 1475.4C327.108 1474.45 325.449 1473.06 324.228 1471.21C323.025 1469.36 322.423 1467.04 322.423 1464.27C322.423 1461.94 322.852 1459.98 323.708 1458.39C324.565 1456.8 325.732 1455.53 327.208 1454.56C328.685 1453.6 330.362 1452.87 332.24 1452.37C334.135 1451.88 336.122 1451.54 338.201 1451.34C340.643 1451.08 342.612 1450.84 344.107 1450.62C345.602 1450.39 346.686 1450.04 347.361 1449.59C348.035 1449.13 348.372 1448.46 348.372 1447.56V1447.4C348.372 1445.67 347.826 1444.33 346.732 1443.38C345.656 1442.43 344.125 1441.96 342.138 1441.96C340.042 1441.96 338.374 1442.42 337.134 1443.35C335.895 1444.26 335.074 1445.41 334.673 1446.8L323.9 1445.92C324.447 1443.37 325.522 1441.16 327.126 1439.3C328.731 1437.43 330.8 1435.99 333.333 1434.98C335.885 1433.96 338.839 1433.45 342.193 1433.45C344.526 1433.45 346.759 1433.73 348.892 1434.27C351.043 1434.82 352.948 1435.67 354.607 1436.82C356.284 1437.96 357.606 1439.44 358.572 1441.25C359.538 1443.03 360.021 1445.17 360.021 1447.67V1476H348.974V1470.18H348.646C347.971 1471.49 347.069 1472.65 345.939 1473.65C344.809 1474.63 343.451 1475.41 341.865 1475.97C340.279 1476.52 338.447 1476.79 336.369 1476.79ZM339.704 1468.75C341.418 1468.75 342.931 1468.42 344.244 1467.74C345.556 1467.05 346.586 1466.12 347.333 1464.95C348.081 1463.79 348.455 1462.46 348.455 1460.99V1456.53C348.09 1456.77 347.589 1456.99 346.951 1457.19C346.331 1457.37 345.629 1457.54 344.845 1457.71C344.061 1457.85 343.277 1457.99 342.494 1458.12C341.71 1458.23 340.999 1458.33 340.361 1458.42C338.994 1458.62 337.8 1458.94 336.779 1459.37C335.758 1459.81 334.965 1460.4 334.4 1461.15C333.835 1461.88 333.552 1462.79 333.552 1463.89C333.552 1465.47 334.126 1466.68 335.275 1467.52C336.441 1468.34 337.918 1468.75 339.704 1468.75ZM388.805 1476.82C384.502 1476.82 380.802 1475.91 377.703 1474.09C374.622 1472.24 372.252 1469.69 370.594 1466.43C368.953 1463.17 368.133 1459.41 368.133 1455.16C368.133 1450.86 368.962 1447.09 370.621 1443.84C372.298 1440.58 374.677 1438.04 377.758 1436.21C380.838 1434.37 384.502 1433.45 388.75 1433.45C392.414 1433.45 395.622 1434.12 398.375 1435.45C401.127 1436.78 403.306 1438.65 404.91 1441.05C406.514 1443.46 407.398 1446.29 407.562 1449.53H396.57C396.26 1447.43 395.44 1445.75 394.109 1444.47C392.797 1443.18 391.074 1442.53 388.941 1442.53C387.137 1442.53 385.56 1443.02 384.211 1444.01C382.88 1444.97 381.841 1446.39 381.094 1448.25C380.346 1450.11 379.973 1452.36 379.973 1455C379.973 1457.68 380.337 1459.96 381.066 1461.84C381.814 1463.71 382.862 1465.14 384.211 1466.13C385.56 1467.11 387.137 1467.61 388.941 1467.61C390.272 1467.61 391.466 1467.33 392.523 1466.79C393.599 1466.24 394.483 1465.45 395.176 1464.41C395.887 1463.35 396.351 1462.08 396.57 1460.61H407.562C407.38 1463.81 406.505 1466.64 404.937 1469.08C403.388 1471.51 401.246 1473.4 398.512 1474.77C395.777 1476.14 392.542 1476.82 388.805 1476.82ZM427.439 1451.72V1476H415.79V1420H427.111V1441.41H427.603C428.551 1438.93 430.082 1436.99 432.197 1435.59C434.311 1434.16 436.964 1433.45 440.154 1433.45C443.07 1433.45 445.613 1434.09 447.783 1435.37C449.97 1436.62 451.665 1438.44 452.869 1440.81C454.09 1443.16 454.691 1445.98 454.673 1449.26V1476H443.025V1451.34C443.043 1448.75 442.387 1446.73 441.056 1445.29C439.744 1443.85 437.902 1443.13 435.533 1443.13C433.947 1443.13 432.543 1443.47 431.322 1444.14C430.119 1444.82 429.171 1445.8 428.478 1447.1C427.803 1448.37 427.457 1449.91 427.439 1451.72ZM505.541 1434V1442.75H480.248V1434H505.541ZM485.991 1423.94H497.639V1463.09C497.639 1464.17 497.803 1465.01 498.131 1465.61C498.459 1466.19 498.915 1466.6 499.498 1466.84C500.1 1467.08 500.793 1467.2 501.576 1467.2C502.123 1467.2 502.67 1467.15 503.217 1467.06C503.764 1466.95 504.183 1466.87 504.475 1466.81L506.307 1475.48C505.724 1475.66 504.903 1475.87 503.846 1476.11C502.789 1476.36 501.504 1476.52 499.991 1476.57C497.183 1476.68 494.722 1476.31 492.608 1475.45C490.511 1474.6 488.88 1473.27 487.713 1471.46C486.547 1469.66 485.972 1467.38 485.991 1464.62V1423.94ZM532.425 1476.82C528.177 1476.82 524.504 1475.92 521.405 1474.11C518.324 1472.29 515.945 1469.76 514.268 1466.51C512.591 1463.25 511.753 1459.47 511.753 1455.16C511.753 1450.83 512.591 1447.03 514.268 1443.79C515.945 1440.53 518.324 1437.99 521.405 1436.19C524.504 1434.36 528.177 1433.45 532.425 1433.45C536.672 1433.45 540.336 1434.36 543.417 1436.19C546.516 1437.99 548.904 1440.53 550.581 1443.79C552.258 1447.03 553.096 1450.83 553.096 1455.16C553.096 1459.47 552.258 1463.25 550.581 1466.51C548.904 1469.76 546.516 1472.29 543.417 1474.11C540.336 1475.92 536.672 1476.82 532.425 1476.82ZM532.479 1467.8C534.412 1467.8 536.025 1467.25 537.319 1466.16C538.613 1465.04 539.589 1463.53 540.245 1461.62C540.919 1459.7 541.257 1457.52 541.257 1455.08C541.257 1452.64 540.919 1450.46 540.245 1448.55C539.589 1446.63 538.613 1445.12 537.319 1444.01C536.025 1442.9 534.412 1442.34 532.479 1442.34C530.529 1442.34 528.888 1442.9 527.557 1444.01C526.245 1445.12 525.251 1446.63 524.577 1448.55C523.921 1450.46 523.593 1452.64 523.593 1455.08C523.593 1457.52 523.921 1459.7 524.577 1461.62C525.251 1463.53 526.245 1465.04 527.557 1466.16C528.888 1467.25 530.529 1467.8 532.479 1467.8ZM592.009 1476.79C589.329 1476.79 586.941 1476.33 584.844 1475.4C582.748 1474.45 581.089 1473.06 579.868 1471.21C578.665 1469.36 578.063 1467.04 578.063 1464.27C578.063 1461.94 578.492 1459.98 579.348 1458.39C580.205 1456.8 581.372 1455.53 582.848 1454.56C584.325 1453.6 586.002 1452.87 587.88 1452.37C589.775 1451.88 591.762 1451.54 593.841 1451.34C596.283 1451.08 598.252 1450.84 599.747 1450.62C601.242 1450.39 602.326 1450.04 603.001 1449.59C603.675 1449.13 604.012 1448.46 604.012 1447.56V1447.4C604.012 1445.67 603.466 1444.33 602.372 1443.38C601.296 1442.43 599.765 1441.96 597.778 1441.96C595.682 1441.96 594.014 1442.42 592.774 1443.35C591.535 1444.26 590.714 1445.41 590.313 1446.8L579.54 1445.92C580.087 1443.37 581.162 1441.16 582.766 1439.3C584.371 1437.43 586.44 1435.99 588.973 1434.98C591.525 1433.96 594.479 1433.45 597.833 1433.45C600.166 1433.45 602.399 1433.73 604.532 1434.27C606.683 1434.82 608.588 1435.67 610.247 1436.82C611.924 1437.96 613.246 1439.44 614.212 1441.25C615.178 1443.03 615.661 1445.17 615.661 1447.67V1476H604.614V1470.18H604.286C603.611 1471.49 602.709 1472.65 601.579 1473.65C600.449 1474.63 599.091 1475.41 597.505 1475.97C595.919 1476.52 594.087 1476.79 592.009 1476.79ZM595.344 1468.75C597.058 1468.75 598.571 1468.42 599.884 1467.74C601.196 1467.05 602.226 1466.12 602.973 1464.95C603.721 1463.79 604.094 1462.46 604.094 1460.99V1456.53C603.73 1456.77 603.229 1456.99 602.591 1457.19C601.971 1457.37 601.269 1457.54 600.485 1457.71C599.701 1457.85 598.917 1457.99 598.134 1458.12C597.35 1458.23 596.639 1458.33 596.001 1458.42C594.634 1458.62 593.44 1458.94 592.419 1459.37C591.398 1459.81 590.605 1460.4 590.04 1461.15C589.475 1461.88 589.192 1462.79 589.192 1463.89C589.192 1465.47 589.766 1466.68 590.915 1467.52C592.081 1468.34 593.558 1468.75 595.344 1468.75ZM101.867 1568V1512H113.516V1533.05H113.871C114.382 1531.92 115.12 1530.78 116.086 1529.61C117.07 1528.42 118.346 1527.44 119.914 1526.66C121.5 1525.85 123.469 1525.45 125.82 1525.45C128.883 1525.45 131.708 1526.26 134.297 1527.86C136.885 1529.45 138.954 1531.84 140.504 1535.05C142.053 1538.24 142.828 1542.24 142.828 1547.05C142.828 1551.74 142.072 1555.7 140.559 1558.92C139.064 1562.13 137.022 1564.56 134.434 1566.22C131.863 1567.86 128.983 1568.68 125.793 1568.68C123.533 1568.68 121.609 1568.31 120.023 1567.56C118.456 1566.82 117.171 1565.88 116.168 1564.75C115.165 1563.6 114.4 1562.44 113.871 1561.27H113.352V1568H101.867ZM113.27 1547C113.27 1549.5 113.616 1551.68 114.309 1553.54C115.001 1555.39 116.004 1556.84 117.316 1557.88C118.629 1558.9 120.224 1559.41 122.102 1559.41C123.997 1559.41 125.602 1558.89 126.914 1557.86C128.227 1556.8 129.22 1555.34 129.895 1553.48C130.587 1551.6 130.934 1549.44 130.934 1547C130.934 1544.58 130.596 1542.44 129.922 1540.6C129.247 1538.76 128.254 1537.32 126.941 1536.28C125.629 1535.24 124.016 1534.72 122.102 1534.72C120.206 1534.72 118.602 1535.22 117.289 1536.23C115.995 1537.23 115.001 1538.65 114.309 1540.49C113.616 1542.33 113.27 1544.5 113.27 1547ZM151.371 1568V1526H163.019V1568H151.371ZM157.222 1520.59C155.49 1520.59 154.005 1520.01 152.765 1518.86C151.544 1517.7 150.933 1516.3 150.933 1514.68C150.933 1513.08 151.544 1511.7 152.765 1510.55C154.005 1509.38 155.49 1508.8 157.222 1508.8C158.954 1508.8 160.43 1509.38 161.652 1510.55C162.891 1511.7 163.511 1513.08 163.511 1514.68C163.511 1516.3 162.891 1517.7 161.652 1518.86C160.43 1520.01 158.954 1520.59 157.222 1520.59ZM195.46 1526V1534.75H170.167V1526H195.46ZM175.909 1515.94H187.558V1555.09C187.558 1556.17 187.722 1557.01 188.05 1557.61C188.378 1558.19 188.834 1558.6 189.417 1558.84C190.019 1559.08 190.711 1559.2 191.495 1559.2C192.042 1559.2 192.589 1559.15 193.136 1559.06C193.683 1558.95 194.102 1558.87 194.394 1558.81L196.226 1567.48C195.642 1567.66 194.822 1567.87 193.765 1568.11C192.707 1568.36 191.422 1568.52 189.909 1568.57C187.102 1568.68 184.641 1568.31 182.526 1567.45C180.43 1566.6 178.798 1565.27 177.632 1563.46C176.465 1561.66 175.891 1559.38 175.909 1556.62V1515.94ZM222.343 1568.82C218.041 1568.82 214.341 1567.91 211.242 1566.09C208.161 1564.24 205.791 1561.69 204.132 1558.43C202.492 1555.17 201.671 1551.41 201.671 1547.16C201.671 1542.86 202.501 1539.09 204.16 1535.84C205.837 1532.58 208.216 1530.04 211.296 1528.21C214.377 1526.37 218.041 1525.45 222.289 1525.45C225.953 1525.45 229.161 1526.12 231.914 1527.45C234.666 1528.78 236.845 1530.65 238.449 1533.05C240.053 1535.46 240.937 1538.29 241.101 1541.53H230.109C229.799 1539.43 228.979 1537.75 227.648 1536.47C226.335 1535.18 224.613 1534.53 222.48 1534.53C220.675 1534.53 219.098 1535.02 217.749 1536.01C216.419 1536.97 215.38 1538.39 214.632 1540.25C213.885 1542.11 213.511 1544.36 213.511 1547C213.511 1549.68 213.876 1551.96 214.605 1553.84C215.352 1555.71 216.4 1557.14 217.749 1558.13C219.098 1559.11 220.675 1559.61 222.48 1559.61C223.811 1559.61 225.005 1559.33 226.062 1558.79C227.137 1558.24 228.022 1557.45 228.714 1556.41C229.425 1555.35 229.89 1554.08 230.109 1552.61H241.101C240.919 1555.81 240.044 1558.64 238.476 1561.08C236.927 1563.51 234.785 1565.4 232.05 1566.77C229.316 1568.14 226.08 1568.82 222.343 1568.82ZM268.306 1568.82C264.058 1568.82 260.385 1567.92 257.286 1566.11C254.205 1564.29 251.826 1561.76 250.149 1558.51C248.472 1555.25 247.634 1551.47 247.634 1547.16C247.634 1542.83 248.472 1539.03 250.149 1535.79C251.826 1532.53 254.205 1529.99 257.286 1528.19C260.385 1526.36 264.058 1525.45 268.306 1525.45C272.553 1525.45 276.217 1526.36 279.298 1528.19C282.397 1529.99 284.785 1532.53 286.462 1535.79C288.139 1539.03 288.977 1542.83 288.977 1547.16C288.977 1551.47 288.139 1555.25 286.462 1558.51C284.785 1561.76 282.397 1564.29 279.298 1566.11C276.217 1567.92 272.553 1568.82 268.306 1568.82ZM268.36 1559.8C270.293 1559.8 271.906 1559.25 273.2 1558.16C274.494 1557.04 275.47 1555.53 276.126 1553.62C276.8 1551.7 277.138 1549.52 277.138 1547.08C277.138 1544.64 276.8 1542.46 276.126 1540.55C275.47 1538.63 274.494 1537.12 273.2 1536.01C271.906 1534.9 270.293 1534.34 268.36 1534.34C266.41 1534.34 264.769 1534.9 263.438 1536.01C262.126 1537.12 261.132 1538.63 260.458 1540.55C259.802 1542.46 259.474 1544.64 259.474 1547.08C259.474 1549.52 259.802 1551.7 260.458 1553.62C261.132 1555.53 262.126 1557.04 263.438 1558.16C264.769 1559.25 266.41 1559.8 268.36 1559.8ZM297.322 1568V1526H308.97V1568H297.322ZM303.173 1520.59C301.441 1520.59 299.956 1520.01 298.716 1518.86C297.495 1517.7 296.884 1516.3 296.884 1514.68C296.884 1513.08 297.495 1511.7 298.716 1510.55C299.956 1509.38 301.441 1508.8 303.173 1508.8C304.905 1508.8 306.382 1509.38 307.603 1510.55C308.843 1511.7 309.462 1513.08 309.462 1514.68C309.462 1516.3 308.843 1517.7 307.603 1518.86C306.382 1520.01 304.905 1520.59 303.173 1520.59ZM330.72 1543.72V1568H319.071V1526H330.173V1533.41H330.665C331.595 1530.97 333.153 1529.04 335.341 1527.61C337.528 1526.17 340.181 1525.45 343.298 1525.45C346.214 1525.45 348.757 1526.09 350.927 1527.37C353.096 1528.64 354.782 1530.47 355.985 1532.84C357.188 1535.19 357.79 1537.99 357.79 1541.26V1568H346.141V1543.34C346.16 1540.77 345.503 1538.76 344.173 1537.32C342.842 1535.86 341.01 1535.13 338.677 1535.13C337.109 1535.13 335.724 1535.47 334.52 1536.14C333.335 1536.82 332.406 1537.8 331.731 1539.1C331.075 1540.37 330.738 1541.91 330.72 1543.72ZM367.741 1568V1526H379.389V1568H367.741ZM373.592 1520.59C371.86 1520.59 370.375 1520.01 369.135 1518.86C367.914 1517.7 367.303 1516.3 367.303 1514.68C367.303 1513.08 367.914 1511.7 369.135 1510.55C370.375 1509.38 371.86 1508.8 373.592 1508.8C375.324 1508.8 376.8 1509.38 378.022 1510.55C379.261 1511.7 379.881 1513.08 379.881 1514.68C379.881 1516.3 379.261 1517.7 378.022 1518.86C376.8 1520.01 375.324 1520.59 373.592 1520.59ZM389.271 1568V1561.05L409.834 1535.6V1535.3H389.982V1526H423.861V1533.57L404.556 1558.4V1558.7H424.572V1568H389.271ZM452.187 1568.82C447.867 1568.82 444.148 1567.95 441.031 1566.2C437.932 1564.43 435.544 1561.93 433.867 1558.7C432.189 1555.46 431.351 1551.62 431.351 1547.19C431.351 1542.87 432.189 1539.08 433.867 1535.82C435.544 1532.55 437.904 1530.01 440.949 1528.19C444.011 1526.36 447.602 1525.45 451.722 1525.45C454.493 1525.45 457.072 1525.9 459.46 1526.79C461.867 1527.67 463.963 1528.99 465.749 1530.76C467.554 1532.53 468.958 1534.75 469.96 1537.43C470.963 1540.09 471.464 1543.21 471.464 1546.78V1549.98H435.999V1542.76H460.499C460.499 1541.08 460.135 1539.6 459.406 1538.3C458.676 1537.01 457.665 1536 456.37 1535.27C455.094 1534.52 453.609 1534.15 451.913 1534.15C450.145 1534.15 448.577 1534.56 447.21 1535.38C445.861 1536.18 444.804 1537.27 444.038 1538.63C443.273 1539.98 442.881 1541.49 442.863 1543.14V1550.01C442.863 1552.09 443.245 1553.88 444.011 1555.39C444.795 1556.91 445.898 1558.07 447.32 1558.89C448.742 1559.71 450.428 1560.12 452.378 1560.12C453.673 1560.12 454.857 1559.94 455.933 1559.58C457.008 1559.21 457.929 1558.67 458.695 1557.94C459.46 1557.21 460.044 1556.32 460.445 1555.26L471.218 1555.97C470.671 1558.56 469.55 1560.82 467.855 1562.75C466.178 1564.66 464.008 1566.16 461.347 1567.23C458.704 1568.29 455.65 1568.82 452.187 1568.82ZM495.312 1568.68C492.122 1568.68 489.233 1567.86 486.644 1566.22C484.074 1564.56 482.032 1562.13 480.519 1558.92C479.025 1555.7 478.277 1551.74 478.277 1547.05C478.277 1542.24 479.052 1538.24 480.601 1535.05C482.151 1531.84 484.211 1529.45 486.781 1527.86C489.37 1526.26 492.204 1525.45 495.285 1525.45C497.637 1525.45 499.596 1525.85 501.164 1526.66C502.75 1527.44 504.026 1528.42 504.992 1529.61C505.976 1530.78 506.724 1531.92 507.234 1533.05H507.59V1512H519.211V1568H507.726V1561.27H507.234C506.687 1562.44 505.913 1563.6 504.91 1564.75C503.926 1565.88 502.64 1566.82 501.055 1567.56C499.487 1568.31 497.573 1568.68 495.312 1568.68ZM499.004 1559.41C500.881 1559.41 502.467 1558.9 503.762 1557.88C505.074 1556.84 506.077 1555.39 506.769 1553.54C507.48 1551.68 507.836 1549.5 507.836 1547C507.836 1544.5 507.489 1542.33 506.797 1540.49C506.104 1538.65 505.101 1537.23 503.789 1536.23C502.476 1535.22 500.881 1534.72 499.004 1534.72C497.09 1534.72 495.476 1535.24 494.164 1536.28C492.851 1537.32 491.858 1538.76 491.183 1540.6C490.509 1542.44 490.172 1544.58 490.172 1547C490.172 1549.44 490.509 1551.6 491.183 1553.48C491.876 1555.34 492.87 1556.8 494.164 1557.86C495.476 1558.89 497.09 1559.41 499.004 1559.41ZM556.434 1568L545.005 1526H556.79L563.298 1554.22H563.68L570.462 1526H582.028L588.919 1554.05H589.274L595.673 1526H607.43L596.028 1568H583.696L576.477 1541.59H575.958L568.739 1568H556.434ZM632.338 1568.82C628.091 1568.82 624.418 1567.92 621.319 1566.11C618.238 1564.29 615.859 1561.76 614.182 1558.51C612.505 1555.25 611.666 1551.47 611.666 1547.16C611.666 1542.83 612.505 1539.03 614.182 1535.79C615.859 1532.53 618.238 1529.99 621.319 1528.19C624.418 1526.36 628.091 1525.45 632.338 1525.45C636.586 1525.45 640.25 1526.36 643.33 1528.19C646.429 1529.99 648.817 1532.53 650.494 1535.79C652.171 1539.03 653.01 1542.83 653.01 1547.16C653.01 1551.47 652.171 1555.25 650.494 1558.51C648.817 1561.76 646.429 1564.29 643.33 1566.11C640.25 1567.92 636.586 1568.82 632.338 1568.82ZM632.393 1559.8C634.325 1559.8 635.938 1559.25 637.233 1558.16C638.527 1557.04 639.502 1555.53 640.158 1553.62C640.833 1551.7 641.17 1549.52 641.17 1547.08C641.17 1544.64 640.833 1542.46 640.158 1540.55C639.502 1538.63 638.527 1537.12 637.233 1536.01C635.938 1534.9 634.325 1534.34 632.393 1534.34C630.442 1534.34 628.802 1534.9 627.471 1536.01C626.158 1537.12 625.165 1538.63 624.49 1540.55C623.834 1542.46 623.506 1544.64 623.506 1547.08C623.506 1549.52 623.834 1551.7 624.49 1553.62C625.165 1555.53 626.158 1557.04 627.471 1558.16C628.802 1559.25 630.442 1559.8 632.393 1559.8ZM661.354 1568V1526H672.647V1533.33H673.085C673.85 1530.72 675.135 1528.75 676.94 1527.42C678.745 1526.07 680.823 1525.4 683.175 1525.4C683.758 1525.4 684.387 1525.43 685.061 1525.51C685.736 1525.58 686.328 1525.68 686.839 1525.81V1536.14C686.292 1535.98 685.535 1535.83 684.569 1535.71C683.603 1535.58 682.719 1535.52 681.917 1535.52C680.203 1535.52 678.672 1535.89 677.323 1536.64C675.992 1537.37 674.935 1538.39 674.151 1539.7C673.385 1541.01 673.003 1542.52 673.003 1544.24V1568H661.354ZM705.279 1512V1568H693.631V1512H705.279ZM730.857 1568.68C727.667 1568.68 724.778 1567.86 722.189 1566.22C719.619 1564.56 717.577 1562.13 716.064 1558.92C714.569 1555.7 713.822 1551.74 713.822 1547.05C713.822 1542.24 714.597 1538.24 716.146 1535.05C717.696 1531.84 719.756 1529.45 722.326 1527.86C724.914 1526.26 727.749 1525.45 730.83 1525.45C733.181 1525.45 735.141 1525.85 736.709 1526.66C738.295 1527.44 739.571 1528.42 740.537 1529.61C741.521 1530.78 742.269 1531.92 742.779 1533.05H743.134V1512H754.756V1568H743.271V1561.27H742.779C742.232 1562.44 741.457 1563.6 740.455 1564.75C739.47 1565.88 738.185 1566.82 736.599 1567.56C735.032 1568.31 733.118 1568.68 730.857 1568.68ZM734.549 1559.41C736.426 1559.41 738.012 1558.9 739.306 1557.88C740.619 1556.84 741.621 1555.39 742.314 1553.54C743.025 1551.68 743.381 1549.5 743.381 1547C743.381 1544.5 743.034 1542.33 742.341 1540.49C741.649 1538.65 740.646 1537.23 739.334 1536.23C738.021 1535.22 736.426 1534.72 734.549 1534.72C732.634 1534.72 731.021 1535.24 729.709 1536.28C728.396 1537.32 727.403 1538.76 726.728 1540.6C726.054 1542.44 725.716 1544.58 725.716 1547C725.716 1549.44 726.054 1551.6 726.728 1553.48C727.421 1555.34 728.414 1556.8 729.709 1557.86C731.021 1558.89 732.634 1559.41 734.549 1559.41Z" fill="white"/>
<path d="M1791.97 512C1791.97 579.895 1765 645.01 1716.99 693.019C1668.98 741.029 1603.86 768 1535.97 768C1535.97 632.872 1535.97 512 1535.97 512C1535.97 512 1646.28 512 1791.97 512Z" fill="#FF9500"/>
<path d="M767.969 0.0781315C835.864 0.0781404 900.979 27.0495 948.988 75.0588C996.997 123.068 1023.97 188.183 1023.97 256.078C888.841 256.078 767.969 256.078 767.969 256.078C767.969 256.078 767.969 145.763 767.969 0.0781315Z" fill="#FFAC36"/>
<path d="M1791.97 0.0781445C1927.76 0.0781623 2057.99 54.0208 2154.01 150.039C2250.03 246.058 2303.97 376.287 2303.97 512.078C2094.94 512.078 1791.97 512.078 1791.97 512.078C1791.97 512.078 1791.97 150.039 1791.97 0.0781445Z" fill="#FF9500"/>
<path d="M511.969 512.078L767.969 512.078L767.969 256.078L511.969 256.078L511.969 512.078Z" fill="white"/>
<path d="M511.969 256.078L767.969 256.078L767.969 0.0781403L511.969 0.0781179L511.969 256.078Z" fill="white"/>
<path d="M639.969 512.078C710.661 512.078 767.969 454.771 767.969 384.078C767.969 313.386 710.661 256.078 639.969 256.078C569.276 256.078 511.969 313.386 511.969 384.078C511.969 454.771 569.276 512.078 639.969 512.078Z" fill="#FFAC36"/>
<path d="M1663.97 512C1734.66 512 1791.97 454.692 1791.97 384C1791.97 313.308 1734.66 256 1663.97 256C1593.28 256 1535.97 313.308 1535.97 384C1535.97 454.692 1593.28 512 1663.97 512Z" fill="white"/>
<path d="M639.969 256.078C710.661 256.078 767.969 198.771 767.969 128.078C767.969 57.3857 710.661 0.0781597 639.969 0.0781474C569.276 0.078135 511.969 57.3857 511.969 128.078C511.969 198.771 569.276 256.078 639.969 256.078Z" fill="#0D6FE0"/>
<path d="M1919.97 770.078C1990.66 770.078 2047.97 712.771 2047.97 642.078C2047.97 571.386 1990.66 514.078 1919.97 514.078C1849.28 514.078 1791.97 571.386 1791.97 642.078C1791.97 712.771 1849.28 770.078 1919.97 770.078Z" fill="#0D6FE0"/>
<path d="M1280.97 514.078C1422.35 514.078 1536.97 399.463 1536.97 258.078C1536.97 116.693 1422.35 2.07812 1280.97 2.07812C1139.58 2.07812 1024.97 116.693 1024.97 258.078C1024.97 399.463 1139.58 514.078 1280.97 514.078Z" fill="#FFAC36"/>
<path d="M1791.97 0.078125H1535.97V256.078H1791.97V0.078125Z" fill="white"/>
</g>
<defs>
<clipPath id="clip0_1672_1516">
<rect width="2304" height="2691" fill="white"/>
</clipPath>
</defs>
</svg>
