<svg width="4353" height="2562" viewBox="0 0 4353 2562" fill="none" xmlns="http://www.w3.org/2000/svg">
<rect x="1" width="4352" height="2560" fill="#0D6FE0"/>
<path d="M2818 512C2818 579.895 2791.03 645.01 2743.02 693.019C2695.01 741.029 2629.9 768 2562 768C2562 632.872 2562 512 2562 512C2562 512 2672.32 512 2818 512Z" fill="#FF9500"/>
<path d="M1024 512C1024 579.895 997.029 645.01 949.019 693.019C901.01 741.029 835.895 768 768 768C768 632.872 768 512 768 512C768 512 878.315 512 1024 512Z" fill="#FF9500"/>
<path d="M3330 2560C3330 2492.1 3356.97 2426.99 3404.98 2378.98C3452.99 2330.97 3518.1 2304 3586 2304C3586 2439.13 3586 2560 3586 2560C3586 2560 3475.68 2560 3330 2560Z" fill="#FF9500"/>
<path d="M3070 511C3070 443.105 3096.97 377.99 3144.98 329.981C3192.99 281.971 3258.1 255 3326 255C3326 390.128 3326 511 3326 511C3326 511 3215.68 511 3070 511Z" fill="white"/>
<path d="M2050 512C1982.1 512 1916.99 485.029 1868.98 437.019C1820.97 389.01 1794 323.895 1794 256C1929.13 256 2050 256 2050 256C2050 256 2050 366.315 2050 512Z" fill="#FFAC36"/>
<path d="M258 512C190.105 512 124.99 485.029 76.9807 437.019C28.9714 389.01 1.99998 323.895 1.99999 256C137.128 256 258 256 258 256C258 256 258 366.315 258 512Z" fill="#FFAC36"/>
<path d="M769 2048C836.895 2048 902.01 2074.97 950.019 2122.98C998.029 2170.99 1025 2236.1 1025 2304C889.872 2304 769 2304 769 2304C769 2304 769 2193.68 769 2048Z" fill="#FFAC36"/>
<path d="M2562 512C2703.38 512 2818 397.385 2818 256C2818 114.615 2703.38 0 2562 0C2420.62 0 2306 114.615 2306 256C2306 397.385 2420.62 512 2562 512Z" fill="#FF9500"/>
<path d="M769 512C910.385 512 1025 397.385 1025 256C1025 114.615 910.385 0 769 0C627.615 0 513 114.615 513 256C513 397.385 627.615 512 769 512Z" fill="#FF9500"/>
<path d="M257 2048C115.615 2048 1.00007 2162.62 1.00005 2304C1.00004 2445.38 115.615 2560 257 2560C398.385 2560 513 2445.38 513 2304C513 2162.62 398.385 2048 257 2048Z" fill="#FF9500"/>
<path d="M2049 1536C2190.38 1536 2305 1421.38 2305 1280C2305 1138.62 2190.38 1024 2049 1024C1907.62 1024 1793 1138.62 1793 1280C1793 1421.38 1907.62 1536 2049 1536Z" fill="#FF9500"/>
<path d="M257 1536C398.385 1536 513 1421.38 513 1280C513 1138.62 398.385 1024 257 1024C115.615 1024 1 1138.62 1 1280C1 1421.38 115.615 1536 257 1536Z" fill="#FF9500"/>
<path d="M4097 1536C3955.62 1536 3841 1650.62 3841 1792C3841 1933.38 3955.62 2048 4097 2048C4238.38 2048 4353 1933.38 4353 1792C4353 1650.62 4238.38 1536 4097 1536Z" fill="#FF9500"/>
<path d="M2305 2560H2817C2817 2277.23 2587.77 2048 2305 2048C2022.23 2048 1793 2277.23 1793 2560H2305Z" fill="#FF9500"/>
<path d="M3841 -4.47605e-05C3558.23 -6.9481e-05 3329 229.23 3329 512C3329 794.77 3558.23 1024 3841 1024C4123.77 1024 4353 794.77 4353 512C4353 229.23 4123.77 -2.00399e-05 3841 -4.47605e-05Z" fill="#FF9500"/>
<path d="M3329 2048V1536V1024C3046.23 1024 2817 1253.23 2817 1536C2817 1818.77 3046.23 2048 3329 2048Z" fill="#FFAC36"/>
<path d="M2306 1280C2306 1212.1 2332.97 1146.99 2380.98 1098.98C2428.99 1050.97 2494.1 1024 2562 1024C2562 1128.51 2562 1280 2562 1280C2562 1280 2380.98 1280 2306 1280Z" fill="#FF9500"/>
<path d="M514 1280C514 1212.1 540.971 1146.99 588.981 1098.98C636.99 1050.97 702.105 1024 770 1024C770 1128.51 770 1280 770 1280C770 1280 588.981 1280 514 1280Z" fill="#FF9500"/>
<path d="M3840 1792C3840 1859.9 3813.03 1925.01 3765.02 1973.02C3717.01 2021.03 3651.9 2048 3584 2048C3584 1943.49 3584 1792 3584 1792C3584 1792 3765.02 1792 3840 1792Z" fill="#FFAC36"/>
<path d="M2305 2048C2169.21 2048 2038.98 1994.06 1942.96 1898.04C1846.94 1802.02 1793 1671.79 1793 1536C2002.03 1536 2305 1536 2305 1536C2305 1536 2305 1898.04 2305 2048Z" fill="#FF9500"/>
<path d="M513 2048C377.209 2048 246.98 1994.06 150.961 1898.04C54.9425 1802.02 1.00001 1671.79 1.00002 1536C210.026 1536 513 1536 513 1536C513 1536 513 1898.04 513 2048Z" fill="#FF9500"/>
<path d="M3841 1024C3976.79 1024 4107.02 1077.94 4203.04 1173.96C4299.06 1269.98 4353 1400.21 4353 1536C4143.97 1536 3841 1536 3841 1536C3841 1536 3841 1173.96 3841 1024Z" fill="#FF9500"/>
<path d="M2305 512C2305 647.791 2251.06 778.02 2155.04 874.039C2059.02 970.057 1928.79 1024 1793 1024C1793 814.974 1793 512 1793 512C1793 512 2155.04 512 2305 512Z" fill="#FFAC36"/>
<path d="M513 512C513 647.791 459.057 778.02 363.039 874.039C267.02 970.057 136.791 1024 1.00001 1024C0.999991 814.974 1.00001 512 1.00001 512C1.00001 512 363.039 512 513 512Z" fill="#FFAC36"/>
<path d="M3841 2560C3841 2424.21 3894.94 2293.98 3990.96 2197.96C4086.98 2101.94 4217.21 2048 4353 2048C4353 2257.03 4353 2560 4353 2560C4353 2560 3990.96 2560 3841 2560Z" fill="#FFAC36"/>
<path d="M2817 1280H2561V1536H2817V1280Z" fill="white"/>
<path d="M1026 1280H770V1536H1026V1280Z" fill="white"/>
<path d="M3329 1792L3585 1792L3585 1536L3329 1536L3329 1792Z" fill="white"/>
<path d="M2817 1024H2561V1280H2817V1024Z" fill="#FFAC36"/>
<path d="M1026 1024H770V1280H1026V1024Z" fill="#FFAC36"/>
<path d="M3329 2048L3585 2048L3585 1792L3329 1792L3329 2048Z" fill="#FF9500"/>
<path d="M1793 1536H1537V1792H1793V1536Z" fill="#FFAC36"/>
<path d="M2306 0H2050V256H2306V0Z" fill="white"/>
<path d="M513 0H257V256H513V0Z" fill="white"/>
<path d="M513 2560L769 2560L769 2304L513 2304L513 2560Z" fill="white"/>
<path d="M2306 256H2050V512H2306V256Z" fill="white"/>
<path d="M513 256H257V512H513V256Z" fill="white"/>
<path d="M513 2304L769 2304L769 2048L513 2048L513 2304Z" fill="white"/>
<path d="M3325.8 0H2818V256H3325.8V0Z" fill="white"/>
<path d="M3330 2048H2818V2304H3330V2048Z" fill="white"/>
<path d="M3330 2304H2818V2560H3330V2304Z" fill="#FFAC36"/>
<path d="M1793 1280H1537V1536H1793V1280Z" fill="white"/>
<path d="M1794 0H1538V256H1794V0Z" fill="#FF9500"/>
<path d="M1794 768H1025V1024H1794V768Z" fill="#FF9500"/>
<path d="M2817 1536H2305V2048H2817V1536Z" fill="white"/>
<path d="M1025 1536H513V2048H1025V1536Z" fill="white"/>
<path d="M3329 1536L3841 1536L3841 1024L3329 1024L3329 1536Z" fill="white"/>
<path d="M3329 512H2817V1024H3329V512Z" fill="#FF9500"/>
<path d="M2178 4.06867e-06C2107.31 -2.11145e-06 2050 57.3075 2050 128C2050 198.692 2107.31 256 2178 256C2248.69 256 2306 198.692 2306 128C2306 57.3076 2248.69 1.02488e-05 2178 4.06867e-06Z" fill="#FFAC36"/>
<path d="M385 4.06867e-06C314.308 -2.11146e-06 257 57.3075 257 128C257 198.692 314.308 256 385 256C455.692 256 513 198.692 513 128C513 57.3076 455.692 1.02488e-05 385 4.06867e-06Z" fill="#FFAC36"/>
<path d="M641 2560C711.692 2560 769 2502.69 769 2432C769 2361.31 711.692 2304 641 2304C570.308 2304 513 2361.31 513 2432C513 2502.69 570.308 2560 641 2560Z" fill="#FFAC36"/>
<path d="M1922 256C1992.69 256 2050 198.692 2050 128C2050 57.3075 1992.69 0 1922 0C1851.31 0 1794 57.3075 1794 128C1794 198.692 1851.31 256 1922 256Z" fill="white"/>
<path d="M128 256C198.692 256 256 198.692 256 128C256 57.3075 198.692 0 128 0C57.3075 0 0 57.3075 0 128C0 198.692 57.3075 256 128 256Z" fill="white"/>
<path d="M897 2304C826.308 2304 769 2361.31 769 2432C769 2502.69 826.308 2560 897 2560C967.692 2560 1025 2502.69 1025 2432C1025 2361.31 967.692 2304 897 2304Z" fill="white"/>
<path d="M2434 1022C2504.69 1022 2562 964.692 2562 894C2562 823.308 2504.69 766 2434 766C2363.31 766 2306 823.308 2306 894C2306 964.692 2363.31 1022 2434 1022Z" fill="white"/>
<path d="M640 1022C710.692 1022 768 964.692 768 894C768 823.308 710.692 766 640 766C569.308 766 512 823.308 512 894C512 964.692 569.308 1022 640 1022Z" fill="white"/>
<path d="M1665 2562C1735.69 2562 1793 2504.69 1793 2434C1793 2363.31 1735.69 2306 1665 2306C1594.31 2306 1537 2363.31 1537 2434C1537 2504.69 1594.31 2562 1665 2562Z" fill="white"/>
<path d="M3712 2050C3641.31 2050 3584 2107.31 3584 2178C3584 2248.69 3641.31 2306 3712 2306C3782.69 2306 3840 2248.69 3840 2178C3840 2107.31 3782.69 2050 3712 2050Z" fill="white"/>
<path d="M2689 1536C2759.69 1536 2817 1478.69 2817 1408C2817 1337.31 2759.69 1280 2689 1280C2618.31 1280 2561 1337.31 2561 1408C2561 1478.69 2618.31 1536 2689 1536Z" fill="#0D6FE0"/>
<path d="M895 1536C965.692 1536 1023 1478.69 1023 1408C1023 1337.31 965.692 1280 895 1280C824.308 1280 767 1337.31 767 1408C767 1478.69 824.308 1536 895 1536Z" fill="#0D6FE0"/>
<path d="M3457 1536C3386.31 1536 3329 1593.31 3329 1664C3329 1734.69 3386.31 1792 3457 1792C3527.69 1792 3585 1734.69 3585 1664C3585 1593.31 3527.69 1536 3457 1536Z" fill="#0D6FE0"/>
<path d="M2178 256C2107.31 256 2050 313.308 2050 384C2050 454.692 2107.31 512 2178 512C2248.69 512 2306 454.692 2306 384C2306 313.308 2248.69 256 2178 256Z" fill="#0D6FE0"/>
<path d="M385 256C314.308 256 257 313.308 257 384C257 454.692 314.308 512 385 512C455.692 512 513 454.692 513 384C513 313.308 455.692 256 385 256Z" fill="#0D6FE0"/>
<path d="M641 2304C711.692 2304 769 2246.69 769 2176C769 2105.31 711.692 2048 641 2048C570.308 2048 513 2105.31 513 2176C513 2246.69 570.308 2304 641 2304Z" fill="#0D6FE0"/>
<path d="M2946 256C3016.69 256 3074 198.692 3074 128C3074 57.3075 3016.69 0 2946 0C2875.31 0 2818 57.3075 2818 128C2818 198.692 2875.31 256 2946 256Z" fill="#FF9500"/>
<path d="M2561 2048C2702.38 2048 2817 1933.38 2817 1792C2817 1650.62 2702.38 1536 2561 1536C2419.62 1536 2305 1650.62 2305 1792C2305 1933.38 2419.62 2048 2561 2048Z" fill="#FFAC36"/>
<path d="M769 2048C910.385 2048 1025 1933.38 1025 1792C1025 1650.62 910.385 1536 769 1536C627.615 1536 513 1650.62 513 1792C513 1933.38 627.615 2048 769 2048Z" fill="#FFAC36"/>
<path d="M1282 2562C1423.38 2562 1538 2447.38 1538 2306C1538 2164.62 1423.38 2050 1282 2050C1140.62 2050 1026 2164.62 1026 2306C1026 2447.38 1140.62 2562 1282 2562Z" fill="#FFAC36"/>
<path d="M3585 1024C3443.62 1024 3329 1138.62 3329 1280C3329 1421.38 3443.62 1536 3585 1536C3726.38 1536 3841 1421.38 3841 1280C3841 1138.62 3726.38 1024 3585 1024Z" fill="#FFAC36"/>
<path d="M1793 2048H1537V2304H1793V2048Z" fill="white"/>
<path d="M1793 512H1537V768H1793V512Z" fill="white"/>
<path d="M1538 0H1025V512H1538V0Z" fill="#FFAC36"/>
<path d="M1537 768H1281V1024H1537V768Z" fill="white"/>
<path d="M1281 768C1348.9 768 1414.01 794.971 1462.02 842.981C1510.03 890.99 1537 956.105 1537 1024C1401.87 1024 1281 1024 1281 1024C1281 1024 1281 913.685 1281 768Z" fill="#0D6FE0"/>
<path d="M1025 1024C1160.79 1024 1291.02 1077.94 1387.04 1173.96C1483.06 1269.98 1537 1400.21 1537 1536C1327.97 1536 1025 1536 1025 1536C1025 1536 1025 1173.96 1025 1024Z" fill="#FFAC36"/>
<path d="M1537 1536H1025V2048H1537V1536Z" fill="#FF9500"/>
<path d="M1281 256C1281 188.105 1307.97 122.99 1355.98 74.9807C1403.99 26.9714 1469.1 5.93561e-06 1537 0C1537 135.128 1537 256 1537 256C1537 256 1426.68 256 1281 256Z" fill="#0D6FE0"/>
</svg>
